<svg width="22" height="34" viewBox="0 0 22 34" fill="none" xmlns="http://www.w3.org/2000/svg">
<path d="M12.2604 0C11.2674 0 10.4241 0.347842 9.73027 1.04353C9.03648 1.73921 8.68959 2.58036 8.68959 3.56696C8.68959 4.55357 9.03648 5.39156 9.73027 6.08092C10.4241 6.77028 11.2674 7.11496 12.2604 7.11496C13.2661 7.11496 14.1158 6.77028 14.8096 6.08092C15.5034 5.39156 15.8503 4.55357 15.8503 3.56696C15.8503 2.58036 15.5034 1.73921 14.8096 1.04353C14.1158 0.347842 13.2661 0 12.2604 0ZM10.5036 8.12054C10.1981 7.4628 9.63798 7.10863 8.82325 7.05804C8.51773 7.03274 7.91942 7.02009 7.02831 7.02009C5.00422 7.08333 3.18382 8.37984 1.5671 10.9096C0.79056 12.1365 0.316364 13.4077 0.144508 14.7232C-0.0273487 16.0387 0.166785 17.3289 0.72691 18.5938L1.91081 23.6975L0.478673 31.4007C0.364102 32.0584 0.500951 32.6529 0.889219 33.1842C1.27749 33.7154 1.78987 33.9874 2.42638 34C3.94126 34 4.83873 33.4371 5.11879 32.3114L6.81826 24.9308C6.9201 24.4501 6.97102 24.115 6.97102 23.9252C6.97102 23.7355 6.91374 23.3813 6.79917 22.8627L5.99717 18.1574L8.09764 12.6172C8.21221 12.7816 8.41907 13.0978 8.71823 13.5658C9.01739 14.0339 9.26881 14.4133 9.47249 14.7042C9.67617 14.9952 9.93077 15.3272 10.2363 15.7003C10.5418 16.0735 10.8505 16.3865 11.1624 16.6395C11.4743 16.8925 11.7894 17.0885 12.1076 17.2277C12.4004 17.3542 14.4881 17.8222 18.3708 18.6317C18.8928 18.7329 19.3288 18.5811 19.6788 18.1763C20.0289 17.7716 20.204 17.3542 20.204 16.9241C20.204 16.3802 19.8412 15.9122 19.1155 15.5201L13.6161 13.9643L10.5036 8.12054ZM15.1056 22.673C15.1056 21.7749 15.427 21.0097 16.0699 20.3772C16.7127 19.7448 17.4925 19.4286 18.409 19.4286C19.3001 19.4286 20.0671 19.7448 20.71 20.3772C21.3529 21.0097 21.6743 21.7749 21.6743 22.673L21.6361 33.1842C21.6361 33.4118 21.5565 33.6047 21.3974 33.7628C21.2383 33.9209 21.0441 34 20.815 34C20.5986 34 20.4076 33.9209 20.2422 33.7628C20.0767 33.6047 19.9939 33.4118 19.9939 33.1842V22.673C19.9939 22.2176 19.8412 21.8318 19.5356 21.5156C19.2301 21.1994 18.8546 21.0413 18.409 21.0413C17.9507 21.0413 17.5657 21.1994 17.2538 21.5156C16.9419 21.8318 16.7859 22.2176 16.7859 22.673C16.7859 22.9007 16.7032 23.0904 16.5377 23.2422C16.3722 23.394 16.1813 23.4699 15.9648 23.4699C15.7357 23.4699 15.5352 23.394 15.3633 23.2422C15.1915 23.0904 15.1056 22.9007 15.1056 22.673Z" fill="white"/>
</svg>
