<svg width="35" height="34" viewBox="0 0 35 34" fill="none" xmlns="http://www.w3.org/2000/svg">
<path d="M23.9024 3.4C23.9024 1.513 25.422 0 27.3171 0C29.2122 0 30.7317 1.513 30.7317 3.4C30.7317 5.287 29.2122 6.8 27.3171 6.8C25.422 6.8 23.9024 5.287 23.9024 3.4ZM30.7317 34V23.8H35L30.6634 10.829C30.435 10.1519 29.9993 9.56311 29.4174 9.14536C28.8355 8.72761 28.1368 8.50191 27.4195 8.5H27.2146C26.4967 8.49935 25.7968 8.72405 25.2144 9.14216C24.6321 9.56027 24.1969 10.1505 23.9707 10.829L22.5024 15.215C24.3463 16.235 25.6098 18.156 25.6098 20.4V34H30.7317ZM17.9268 16.15C19.3439 16.15 20.4878 15.011 20.4878 13.6C20.4878 12.189 19.3439 11.05 17.9268 11.05C16.5098 11.05 15.3659 12.189 15.3659 13.6C15.3659 15.011 16.5098 16.15 17.9268 16.15ZM5.97561 6.8C7.87073 6.8 9.39024 5.287 9.39024 3.4C9.39024 1.513 7.87073 0 5.97561 0C4.08049 0 2.56098 1.513 2.56098 3.4C2.56098 5.287 4.08049 6.8 5.97561 6.8ZM9.39024 34V22.1H11.9512V11.9C11.9512 10.03 10.4146 8.5 8.53659 8.5H3.41463C1.53659 8.5 0 10.03 0 11.9V22.1H2.56098V34H9.39024ZM20.4878 34V27.2H22.1951V20.4C22.1951 19.006 21.0341 17.85 19.6341 17.85H16.2195C14.8195 17.85 13.6585 19.006 13.6585 20.4V27.2H15.3659V34H20.4878Z" fill="white"/>
</svg>
