<svg width="34" height="34" viewBox="0 0 34 34" fill="none" xmlns="http://www.w3.org/2000/svg">
<path d="M32.3 25.5001C31.5745 23.9187 30.3896 22.5926 28.8996 21.6943C27.4097 20.796 25.6837 20.3672 23.9466 20.4638L17 28.7513L10.03 20.4638C8.31065 20.3959 6.60888 20.8312 5.13336 21.7163C3.65785 22.6015 2.47273 23.898 1.72335 25.4469C0.791505 27.4494 0.210719 29.5972 0.00634766 31.7964L4.24997 31.8751V34.0001H29.75V31.8751H34C33.7961 29.6248 33.2037 27.4268 32.249 25.3789L32.3 25.5001Z" fill="white"/>
<path d="M13.9613 18.5512C13.9236 18.9339 13.7603 19.2933 13.4971 19.5735C13.2338 19.8537 12.8852 20.0389 12.5057 20.1004L17 25.5L21.505 20.145C21.1246 20.0849 20.7747 19.9009 20.5096 19.6215C20.2445 19.3422 20.079 18.9831 20.0388 18.6001C20.0388 17.2975 21.7388 17.7225 23.0775 15.5125C23.0775 15.4488 29.1975 0 17 0C4.80253 0 10.9225 15.4487 10.9225 15.4487C12.2613 17.68 13.9825 17.255 13.9613 18.5512Z" fill="white"/>
</svg>
